# xmcd CD database file
#
# Track frame offsets:
#	150
#	17962
#	33730
#	45912
#	62402
#	74690
#	86752
#	98622
#	110527
#	120192
#	133655
#	145995
#	159635
#	172032
#	186932
#	199027
#
# Disc length: 2822 seconds
#
# Revision: 0
# Processed by: cddbd v1.5.1PL0 Copyright (c) Steve Scherf et al.
# Submitted via: CDex 1.50
#
DISCID=e00b0410
DTITLE=Walter Bishop Jr. - Walter Bishop Jr. trio
DYEAR=1962
DGENRE=Jazz
TTITLE0=Tell it that way it is
TTITLE1=I thought about you
TTITLE2=Things ain't what they used to be
TTITLE3=Falling in love with love
TTITLE4=Dottie's Theme
TTITLE5=Dinkum
TTITLE6=Take one of my pills
TTITLE7=Theme on a legend
TTITLE8=Getting off the ground
TTITLE9=Summertime
TTITLE10=Easy to love
TTITLE11=33rd off 3rd
TTITLE12=Love for sale
TTITLE13=Our Romance
TTITLE14=The Bishop moves
TTITLE15=Easy Walk
EXTD=YEAR: 1962
EXTT0=
EXTT1=
EXTT2=
EXTT3=
EXTT4=
EXTT5=
EXTT6=
EXTT7=
EXTT8=
EXTT9=
EXTT10=
EXTT11=
EXTT12=
EXTT13=
EXTT14=
EXTT15=
PLAYORDER=
